# xmcd CD database file
#
# Track frame offsets:
#	150
#	32112
#	54861
#	107784
#	122433
#	152738
#	181928
#	210101
#	247476
#	270477
#	298922
#	324450
#
# Disc length: 4588 seconds
#
# Revision: 0
# Processed by: cddbd v1.5.2PL0 Copyright (c) Steve Scherf et al.
# Submitted via: CDex 1.82
#
DISCID=a711ea0c
DTITLE=Tutu Puoane and Brussels Jazz Orchestra  - We Have a Dream
DYEAR=2017
DGENRE=Jazz
TTITLE0=Why?
TTITLE1=Big Yellow Taxi
TTITLE2=They Dance Alone
TTITLE3=Not Yet Uhuru
TTITLE4=Four Women
TTITLE5=The Killing Of George (part I and II)
TTITLE6=Cherokee Louise
TTITLE7=Inner City Blues
TTITLE8=Someday We'll All Be Free
TTITLE9=It's Not Easy Being Green
TTITLE10=Heaven Help Us All
TTITLE11=War
EXTD=YEAR: 2017
EXTT0=
EXTT1=
EXTT2=
EXTT3=
EXTT4=
EXTT5=
EXTT6=
EXTT7=
EXTT8=
EXTT9=
EXTT10=
EXTT11=
PLAYORDER=
